<svg width="11" height="9" viewBox="0 0 11 9" fill="none" xmlns="http://www.w3.org/2000/svg">
<path d="M1 4C0.723858 4 0.5 4.22386 0.5 4.5C0.5 4.77614 0.723858 5 1 5V4ZM10.8536 4.85355C11.0488 4.65829 11.0488 4.34171 10.8536 4.14645L7.67157 0.964466C7.47631 0.769204 7.15973 0.769204 6.96447 0.964466C6.7692 1.15973 6.7692 1.47631 6.96447 1.67157L9.79289 4.5L6.96447 7.32843C6.7692 7.52369 6.7692 7.84027 6.96447 8.03553C7.15973 8.2308 7.47631 8.2308 7.67157 8.03553L10.8536 4.85355ZM1 5H10.5V4H1V5Z" fill="#0094FF"/>
</svg>
